<mxfile host="app.diagrams.net" modified="2021-09-25T19:14:44.972Z" agent="5.0 (Windows NT 10.0; Win64; x64) AppleWebKit/537.36 (KHTML, like Gecko) Chrome/93.0.4577.82 Safari/537.36" etag="O8bHPpk6TcsakXCl3Otx" version="15.3.2" type="github">
  <diagram id="a45cf8ec-cd66-6f27-3ac3-be6e809c9e4a" name="Page-1">
    <mxGraphModel dx="2516" dy="1154" grid="1" gridSize="10" guides="1" tooltips="1" connect="1" arrows="1" fold="1" page="1" pageScale="1" pageWidth="827" pageHeight="1169" background="none" math="0" shadow="0">
      <root>
        <mxCell id="0" />
        <mxCell id="1" parent="0" />
        <mxCell id="3" value="" style="rounded=1;whiteSpace=wrap;html=1;shadow=0;strokeColor=none;fillColor=#BAC8D3;gradientColor=none;fontSize=18;fontColor=#F08705;opacity=40;fontStyle=0;strokeWidth=3;" parent="1" vertex="1">
          <mxGeometry x="215" y="70" width="1215" height="701" as="geometry" />
        </mxCell>
        <mxCell id="7" value="ESXI Cluster" style="rounded=1;whiteSpace=wrap;html=1;shadow=0;strokeColor=none;fillColor=#BAC8D3;gradientColor=none;fontSize=18;fontColor=#AE4132;verticalAlign=top;fontStyle=0;opacity=70;strokeWidth=3;" parent="1" vertex="1">
          <mxGeometry x="337" y="182" width="413" height="120" as="geometry" />
        </mxCell>
        <mxCell id="8" value="Docker Swarm" style="rounded=1;whiteSpace=wrap;html=1;shadow=0;strokeColor=none;fillColor=#BAC8D3;gradientColor=none;fontSize=18;fontColor=#AE4132;verticalAlign=top;fontStyle=0;opacity=70;strokeWidth=3;" parent="1" vertex="1">
          <mxGeometry x="827" y="180" width="280" height="410" as="geometry" />
        </mxCell>
        <mxCell id="OU1Akl8PPFRCoXZEZlV0-219" style="edgeStyle=orthogonalEdgeStyle;rounded=0;orthogonalLoop=1;jettySize=auto;html=1;exitX=0.07;exitY=0.4;exitDx=0;exitDy=0;exitPerimeter=0;entryX=1;entryY=0.5;entryDx=0;entryDy=0;" edge="1" parent="1" source="18" target="OU1Akl8PPFRCoXZEZlV0-205">
          <mxGeometry relative="1" as="geometry" />
        </mxCell>
        <mxCell id="18" value="Home Network" style="ellipse;shape=cloud;whiteSpace=wrap;html=1;shadow=0;strokeColor=#23445D;fillColor=#BAC8D3;gradientColor=none;fontSize=18;fontColor=#23445D;gradientDirection=north;fontStyle=0;strokeWidth=2;" parent="1" vertex="1">
          <mxGeometry x="1450" y="79" width="172" height="80" as="geometry" />
        </mxCell>
        <mxCell id="20" value="20 Gbps LAGG" style="strokeWidth=2;strokeColor=#666666;dashed=0;align=center;html=1;fontSize=8;shape=mxgraph.eip.messageChannel;shadow=0;fillColor=#FFFFFF;gradientColor=none;fontColor=#F08705;fontStyle=0" parent="1" vertex="1">
          <mxGeometry x="315" y="109" width="175" height="20" as="geometry" />
        </mxCell>
        <mxCell id="39" value="" style="image;html=1;image=img/lib/clip_art/computers/Server_Rack_128x128.png;shadow=0;strokeColor=#000000;fillColor=#FFFFFF;gradientColor=none;fontSize=18;fontColor=#F08705;fontStyle=0" parent="1" vertex="1">
          <mxGeometry x="337" y="217" width="80" height="80" as="geometry" />
        </mxCell>
        <mxCell id="40" value="" style="image;html=1;image=img/lib/clip_art/computers/Server_Rack_128x128.png;shadow=0;strokeColor=#000000;fillColor=#FFFFFF;gradientColor=none;fontSize=18;fontColor=#F08705;fontStyle=0" parent="1" vertex="1">
          <mxGeometry x="427" y="217" width="80" height="80" as="geometry" />
        </mxCell>
        <mxCell id="41" value="" style="image;html=1;image=img/lib/clip_art/computers/Server_Rack_128x128.png;shadow=0;strokeColor=#000000;fillColor=#FFFFFF;gradientColor=none;fontSize=18;fontColor=#F08705;fontStyle=0" parent="1" vertex="1">
          <mxGeometry x="517" y="217" width="80" height="80" as="geometry" />
        </mxCell>
        <mxCell id="42" value="" style="image;html=1;image=img/lib/clip_art/computers/Server_Tower_128x128.png;shadow=0;strokeColor=#000000;fillColor=#FFFFFF;gradientColor=none;fontSize=18;fontColor=#F08705;fontStyle=0" parent="1" vertex="1">
          <mxGeometry x="832" y="225" width="80" height="80" as="geometry" />
        </mxCell>
        <mxCell id="43" value="" style="image;html=1;image=img/lib/clip_art/computers/Server_Tower_128x128.png;shadow=0;strokeColor=#000000;fillColor=#FFFFFF;gradientColor=none;fontSize=18;fontColor=#F08705;fontStyle=0" parent="1" vertex="1">
          <mxGeometry x="932" y="225" width="80" height="80" as="geometry" />
        </mxCell>
        <mxCell id="44" value="" style="image;html=1;image=img/lib/clip_art/computers/Server_Tower_128x128.png;shadow=0;strokeColor=#000000;fillColor=#FFFFFF;gradientColor=none;fontSize=18;fontColor=#F08705;fontStyle=0" parent="1" vertex="1">
          <mxGeometry x="1022" y="225" width="80" height="80" as="geometry" />
        </mxCell>
        <mxCell id="45" value="20 Gbps LACP" style="strokeWidth=2;strokeColor=#666666;dashed=0;align=center;html=1;fontSize=8;shape=mxgraph.eip.messageChannel;shadow=0;fillColor=#FFFFFF;gradientColor=none;fontColor=#F08705;fontStyle=0" parent="1" vertex="1">
          <mxGeometry x="543" y="109" width="187" height="20" as="geometry" />
        </mxCell>
        <mxCell id="49" value="Internet" style="ellipse;shape=cloud;whiteSpace=wrap;html=1;shadow=0;strokeColor=#23445D;fillColor=#BAC8D3;gradientColor=none;fontSize=18;fontColor=#23445D;fontStyle=0;gradientDirection=north;strokeWidth=2;" parent="1" vertex="1">
          <mxGeometry x="-510" y="10" width="700" height="480" as="geometry" />
        </mxCell>
        <mxCell id="50" value="Torguard 1" style="ellipse;shape=cloud;whiteSpace=wrap;html=1;shadow=0;strokeColor=#23445D;fillColor=#BAC8D3;gradientColor=none;fontSize=18;fontColor=#23445D;fontStyle=0;gradientDirection=north;strokeWidth=2;" parent="1" vertex="1">
          <mxGeometry x="-300" y="70" width="120" height="80" as="geometry" />
        </mxCell>
        <mxCell id="91" value="" style="edgeStyle=elbowEdgeStyle;strokeWidth=2;rounded=0;endArrow=none;startArrow=none;startSize=10;endSize=10;dashed=0;html=1;strokeColor=#23445D;fontSize=18;fontColor=#F08705;startFill=0;endFill=0;fontStyle=0" parent="1" target="46" edge="1">
          <mxGeometry relative="1" as="geometry">
            <mxPoint x="539.7142857142858" y="369" as="sourcePoint" />
            <mxPoint x="550" y="240" as="targetPoint" />
          </mxGeometry>
        </mxCell>
        <mxCell id="92" value="" style="edgeStyle=elbowEdgeStyle;strokeWidth=2;rounded=0;endArrow=none;startArrow=none;startSize=10;endSize=10;dashed=0;html=1;strokeColor=#23445D;fontSize=18;fontColor=#F08705;startFill=0;endFill=0;fontStyle=0" parent="1" target="46" edge="1">
          <mxGeometry relative="1" as="geometry">
            <mxPoint x="629.7142857142858" y="369" as="sourcePoint" />
            <mxPoint x="560" y="250" as="targetPoint" />
          </mxGeometry>
        </mxCell>
        <mxCell id="93" value="" style="edgeStyle=elbowEdgeStyle;strokeWidth=2;rounded=0;endArrow=none;startArrow=none;startSize=10;endSize=10;dashed=0;html=1;strokeColor=#23445D;fontSize=18;fontColor=#F08705;startFill=0;endFill=0;fontStyle=0" parent="1" source="32" edge="1">
          <mxGeometry relative="1" as="geometry">
            <mxPoint x="570" y="207" as="sourcePoint" />
            <mxPoint x="729.7142857142858" y="399" as="targetPoint" />
          </mxGeometry>
        </mxCell>
        <mxCell id="152" value="" style="edgeStyle=elbowEdgeStyle;strokeWidth=2;rounded=0;endArrow=none;startArrow=none;startSize=10;endSize=10;dashed=0;html=1;strokeColor=#23445D;fontSize=18;fontColor=#F08705;startFill=0;endFill=0;fontStyle=0" parent="1" target="46" edge="1">
          <mxGeometry relative="1" as="geometry">
            <mxPoint x="418.2857142857147" y="369" as="sourcePoint" />
            <mxPoint x="560.5797101449277" y="250.30434782608688" as="targetPoint" />
          </mxGeometry>
        </mxCell>
        <mxCell id="OU1Akl8PPFRCoXZEZlV0-210" style="edgeStyle=orthogonalEdgeStyle;rounded=0;orthogonalLoop=1;jettySize=auto;html=1;exitX=0;exitY=1;exitDx=0;exitDy=0;entryX=0.25;entryY=0;entryDx=0;entryDy=0;" edge="1" parent="1" source="162" target="7">
          <mxGeometry relative="1" as="geometry" />
        </mxCell>
        <mxCell id="OU1Akl8PPFRCoXZEZlV0-211" style="edgeStyle=orthogonalEdgeStyle;rounded=0;orthogonalLoop=1;jettySize=auto;html=1;exitX=0.5;exitY=1;exitDx=0;exitDy=0;entryX=0.5;entryY=0;entryDx=0;entryDy=0;" edge="1" parent="1" source="162" target="OU1Akl8PPFRCoXZEZlV0-207">
          <mxGeometry relative="1" as="geometry" />
        </mxCell>
        <mxCell id="162" value="" style="image;html=1;image=img/lib/clip_art/networking/Concentrator_128x128.png;shadow=0;strokeColor=#000000;fillColor=#F2F2F2;gradientColor=none;fontSize=18;fontColor=#F08705;fontStyle=0" parent="1" vertex="1">
          <mxGeometry x="472" y="79" width="80" height="80" as="geometry" />
        </mxCell>
        <mxCell id="168" value="Server Rack" style="text;html=1;strokeColor=none;fillColor=none;align=center;verticalAlign=middle;whiteSpace=wrap;overflow=hidden;shadow=0;fontSize=36;fontColor=#AE4132;fontStyle=0" parent="1" vertex="1">
          <mxGeometry x="137" y="15" width="1380" height="45" as="geometry" />
        </mxCell>
        <mxCell id="171" style="edgeStyle=orthogonalEdgeStyle;rounded=0;jumpStyle=none;html=1;exitX=0;exitY=0.5;entryX=0;entryY=0.5;shadow=0;labelBackgroundColor=none;startArrow=none;startFill=0;endArrow=classic;endFill=1;endSize=6;jettySize=auto;orthogonalLoop=1;strokeColor=#23445D;strokeWidth=2;fillColor=#F08705;fontFamily=Helvetica;fontSize=14;fontColor=#F08705;align=left;fontStyle=0" parent="1" source="168" target="168" edge="1">
          <mxGeometry relative="1" as="geometry" />
        </mxCell>
        <mxCell id="172" style="edgeStyle=orthogonalEdgeStyle;rounded=0;jumpStyle=none;html=1;exitX=0.75;exitY=0;entryX=0.75;entryY=0;shadow=0;labelBackgroundColor=none;startArrow=none;startFill=0;endArrow=classic;endFill=1;endSize=6;jettySize=auto;orthogonalLoop=1;strokeColor=#23445D;strokeWidth=2;fillColor=#F08705;fontFamily=Helvetica;fontSize=14;fontColor=#FFFFFF;align=left;fontStyle=0" parent="1" edge="1">
          <mxGeometry relative="1" as="geometry">
            <mxPoint x="980" y="97" as="sourcePoint" />
            <mxPoint x="980" y="97" as="targetPoint" />
          </mxGeometry>
        </mxCell>
        <mxCell id="OU1Akl8PPFRCoXZEZlV0-182" style="edgeStyle=orthogonalEdgeStyle;rounded=0;orthogonalLoop=1;jettySize=auto;html=1;exitX=0;exitY=0.5;exitDx=0;exitDy=0;entryX=0.88;entryY=0.25;entryDx=0;entryDy=0;entryPerimeter=0;" edge="1" parent="1" source="OU1Akl8PPFRCoXZEZlV0-173" target="49">
          <mxGeometry relative="1" as="geometry" />
        </mxCell>
        <mxCell id="OU1Akl8PPFRCoXZEZlV0-183" style="edgeStyle=orthogonalEdgeStyle;rounded=0;orthogonalLoop=1;jettySize=auto;html=1;exitX=0.25;exitY=0;exitDx=0;exitDy=0;" edge="1" parent="1" source="OU1Akl8PPFRCoXZEZlV0-173" target="OU1Akl8PPFRCoXZEZlV0-176">
          <mxGeometry relative="1" as="geometry" />
        </mxCell>
        <mxCell id="OU1Akl8PPFRCoXZEZlV0-184" style="edgeStyle=orthogonalEdgeStyle;rounded=0;orthogonalLoop=1;jettySize=auto;html=1;exitX=0;exitY=0;exitDx=0;exitDy=0;entryX=0.642;entryY=0.113;entryDx=0;entryDy=0;entryPerimeter=0;" edge="1" parent="1" source="OU1Akl8PPFRCoXZEZlV0-173" target="50">
          <mxGeometry relative="1" as="geometry">
            <Array as="points">
              <mxPoint x="44" y="79" />
              <mxPoint x="44" y="99" />
            </Array>
          </mxGeometry>
        </mxCell>
        <mxCell id="OU1Akl8PPFRCoXZEZlV0-185" style="edgeStyle=orthogonalEdgeStyle;rounded=0;orthogonalLoop=1;jettySize=auto;html=1;exitX=0;exitY=0.25;exitDx=0;exitDy=0;entryX=0.88;entryY=0.25;entryDx=0;entryDy=0;entryPerimeter=0;startArrow=none;" edge="1" parent="1" source="OU1Akl8PPFRCoXZEZlV0-180" target="OU1Akl8PPFRCoXZEZlV0-175">
          <mxGeometry relative="1" as="geometry" />
        </mxCell>
        <mxCell id="OU1Akl8PPFRCoXZEZlV0-186" style="edgeStyle=orthogonalEdgeStyle;rounded=0;orthogonalLoop=1;jettySize=auto;html=1;exitX=0;exitY=0.75;exitDx=0;exitDy=0;entryX=1;entryY=0.5;entryDx=0;entryDy=0;" edge="1" parent="1" source="OU1Akl8PPFRCoXZEZlV0-173" target="OU1Akl8PPFRCoXZEZlV0-179">
          <mxGeometry relative="1" as="geometry" />
        </mxCell>
        <mxCell id="OU1Akl8PPFRCoXZEZlV0-188" style="edgeStyle=orthogonalEdgeStyle;rounded=0;orthogonalLoop=1;jettySize=auto;html=1;exitX=0.25;exitY=1;exitDx=0;exitDy=0;entryX=0.783;entryY=0.188;entryDx=0;entryDy=0;entryPerimeter=0;" edge="1" parent="1" source="OU1Akl8PPFRCoXZEZlV0-173" target="OU1Akl8PPFRCoXZEZlV0-177">
          <mxGeometry relative="1" as="geometry" />
        </mxCell>
        <mxCell id="OU1Akl8PPFRCoXZEZlV0-192" style="edgeStyle=orthogonalEdgeStyle;rounded=0;orthogonalLoop=1;jettySize=auto;html=1;exitX=0.5;exitY=1;exitDx=0;exitDy=0;" edge="1" parent="1" source="OU1Akl8PPFRCoXZEZlV0-173" target="OU1Akl8PPFRCoXZEZlV0-178">
          <mxGeometry relative="1" as="geometry" />
        </mxCell>
        <mxCell id="OU1Akl8PPFRCoXZEZlV0-173" value="" style="image;html=1;image=img/lib/clip_art/networking/Firewall_02_128x128.png" vertex="1" parent="1">
          <mxGeometry x="257" y="79" width="80" height="80" as="geometry" />
        </mxCell>
        <mxCell id="OU1Akl8PPFRCoXZEZlV0-175" value="Torguard 2" style="ellipse;shape=cloud;whiteSpace=wrap;html=1;shadow=0;strokeColor=#23445D;fillColor=#BAC8D3;gradientColor=none;fontSize=18;fontColor=#23445D;fontStyle=0;gradientDirection=north;strokeWidth=2;" vertex="1" parent="1">
          <mxGeometry x="-140" y="102" width="120" height="80" as="geometry" />
        </mxCell>
        <mxCell id="OU1Akl8PPFRCoXZEZlV0-176" value="Torguard 3" style="ellipse;shape=cloud;whiteSpace=wrap;html=1;shadow=0;strokeColor=#23445D;fillColor=#BAC8D3;gradientColor=none;fontSize=18;fontColor=#23445D;fontStyle=0;gradientDirection=north;strokeWidth=2;" vertex="1" parent="1">
          <mxGeometry x="-450" y="159" width="120" height="80" as="geometry" />
        </mxCell>
        <mxCell id="OU1Akl8PPFRCoXZEZlV0-177" value="Torguard 4" style="ellipse;shape=cloud;whiteSpace=wrap;html=1;shadow=0;strokeColor=#23445D;fillColor=#BAC8D3;gradientColor=none;fontSize=18;fontColor=#23445D;fontStyle=0;gradientDirection=north;strokeWidth=2;" vertex="1" parent="1">
          <mxGeometry x="-430" y="294" width="120" height="80" as="geometry" />
        </mxCell>
        <mxCell id="OU1Akl8PPFRCoXZEZlV0-178" value="ProtonVPN" style="ellipse;shape=cloud;whiteSpace=wrap;html=1;shadow=0;strokeColor=#23445D;fillColor=#BAC8D3;gradientColor=none;fontSize=18;fontColor=#23445D;fontStyle=0;gradientDirection=north;strokeWidth=2;" vertex="1" parent="1">
          <mxGeometry x="-86" y="269" width="120" height="80" as="geometry" />
        </mxCell>
        <mxCell id="OU1Akl8PPFRCoXZEZlV0-179" value="Cloudflare" style="shape=image;html=1;verticalAlign=top;verticalLabelPosition=bottom;labelBackgroundColor=#ffffff;imageAspect=0;aspect=fixed;image=https://cdn4.iconfinder.com/data/icons/logos-brands-5/24/cloudflare-128.png" vertex="1" parent="1">
          <mxGeometry x="-234" y="321" width="148" height="148" as="geometry" />
        </mxCell>
        <mxCell id="OU1Akl8PPFRCoXZEZlV0-189" value="Hurricane Tunnel Broker IPv6" style="ellipse;shape=cloud;whiteSpace=wrap;html=1;shadow=0;strokeColor=#23445D;fillColor=#BAC8D3;gradientColor=none;fontSize=18;fontColor=#23445D;fontStyle=0;gradientDirection=north;strokeWidth=2;" vertex="1" parent="1">
          <mxGeometry x="-340" y="220" width="180" height="115" as="geometry" />
        </mxCell>
        <mxCell id="OU1Akl8PPFRCoXZEZlV0-190" value="" style="edgeStyle=orthogonalEdgeStyle;rounded=0;orthogonalLoop=1;jettySize=auto;html=1;exitX=0;exitY=1;exitDx=0;exitDy=0;endArrow=none;" edge="1" parent="1" source="OU1Akl8PPFRCoXZEZlV0-173" target="OU1Akl8PPFRCoXZEZlV0-189">
          <mxGeometry relative="1" as="geometry">
            <mxPoint x="257" y="159" as="sourcePoint" />
            <mxPoint x="-150" y="340" as="targetPoint" />
          </mxGeometry>
        </mxCell>
        <mxCell id="OU1Akl8PPFRCoXZEZlV0-180" value="Micro-MSP services" style="ellipse;shape=cloud;whiteSpace=wrap;html=1;shadow=0;strokeColor=#23445D;fillColor=#BAC8D3;gradientColor=none;fontSize=18;fontColor=#23445D;fontStyle=0;gradientDirection=north;strokeWidth=2;" vertex="1" parent="1">
          <mxGeometry x="-10" y="118" width="120" height="80" as="geometry" />
        </mxCell>
        <mxCell id="OU1Akl8PPFRCoXZEZlV0-193" value="" style="edgeStyle=orthogonalEdgeStyle;rounded=0;orthogonalLoop=1;jettySize=auto;html=1;exitX=0;exitY=0.25;exitDx=0;exitDy=0;entryX=0.88;entryY=0.25;entryDx=0;entryDy=0;entryPerimeter=0;endArrow=none;" edge="1" parent="1" source="OU1Akl8PPFRCoXZEZlV0-173" target="OU1Akl8PPFRCoXZEZlV0-180">
          <mxGeometry relative="1" as="geometry">
            <mxPoint x="257" y="99" as="sourcePoint" />
            <mxPoint x="-34.40000000000009" y="122" as="targetPoint" />
          </mxGeometry>
        </mxCell>
        <mxCell id="OU1Akl8PPFRCoXZEZlV0-194" value="Mobile Customers" style="rounded=1;whiteSpace=wrap;html=1;shadow=0;strokeColor=none;fillColor=#BAC8D3;gradientColor=none;fontSize=18;fontColor=#AE4132;verticalAlign=bottom;fontStyle=0;opacity=40;strokeWidth=3;" vertex="1" parent="1">
          <mxGeometry x="-430" y="439" width="115" height="251" as="geometry" />
        </mxCell>
        <mxCell id="OU1Akl8PPFRCoXZEZlV0-200" style="edgeStyle=orthogonalEdgeStyle;rounded=0;orthogonalLoop=1;jettySize=auto;html=1;exitX=1;exitY=0.5;exitDx=0;exitDy=0;" edge="1" parent="1" source="OU1Akl8PPFRCoXZEZlV0-195" target="OU1Akl8PPFRCoXZEZlV0-179">
          <mxGeometry relative="1" as="geometry" />
        </mxCell>
        <mxCell id="OU1Akl8PPFRCoXZEZlV0-195" value="" style="image;html=1;image=img/lib/clip_art/computers/Workstation_128x128.png;shadow=0;strokeColor=#000000;fillColor=#FFFFFF;gradientColor=none;fontSize=18;fontColor=#F08705;fontStyle=0" vertex="1" parent="1">
          <mxGeometry x="-412" y="454" width="80" height="80" as="geometry" />
        </mxCell>
        <mxCell id="OU1Akl8PPFRCoXZEZlV0-201" style="edgeStyle=orthogonalEdgeStyle;rounded=0;orthogonalLoop=1;jettySize=auto;html=1;exitX=1;exitY=0.5;exitDx=0;exitDy=0;entryX=0;entryY=0.75;entryDx=0;entryDy=0;" edge="1" parent="1" source="OU1Akl8PPFRCoXZEZlV0-196" target="OU1Akl8PPFRCoXZEZlV0-179">
          <mxGeometry relative="1" as="geometry" />
        </mxCell>
        <mxCell id="OU1Akl8PPFRCoXZEZlV0-196" value="" style="image;html=1;image=img/lib/clip_art/computers/Workstation_128x128.png;shadow=0;strokeColor=#000000;fillColor=#FFFFFF;gradientColor=none;fontSize=18;fontColor=#F08705;fontStyle=0" vertex="1" parent="1">
          <mxGeometry x="-402" y="550" width="80" height="80" as="geometry" />
        </mxCell>
        <mxCell id="OU1Akl8PPFRCoXZEZlV0-205" value="" style="image;html=1;image=img/lib/clip_art/networking/Concentrator_128x128.png;shadow=0;strokeColor=#000000;fillColor=#F2F2F2;gradientColor=none;fontSize=18;fontColor=#F08705;fontStyle=0" vertex="1" parent="1">
          <mxGeometry x="720" y="79" width="80" height="80" as="geometry" />
        </mxCell>
        <mxCell id="OU1Akl8PPFRCoXZEZlV0-206" value="" style="image;html=1;image=img/lib/clip_art/computers/Server_Rack_128x128.png;shadow=0;strokeColor=#000000;fillColor=#FFFFFF;gradientColor=none;fontSize=18;fontColor=#F08705;fontStyle=0" vertex="1" parent="1">
          <mxGeometry x="630" y="217" width="80" height="80" as="geometry" />
        </mxCell>
        <mxCell id="OU1Akl8PPFRCoXZEZlV0-207" value="Storage Farm" style="rounded=1;whiteSpace=wrap;html=1;shadow=0;strokeColor=none;fillColor=#BAC8D3;gradientColor=none;fontSize=18;fontColor=#AE4132;verticalAlign=top;fontStyle=0;opacity=70;strokeWidth=3;" vertex="1" parent="1">
          <mxGeometry x="334" y="340" width="413" height="120" as="geometry" />
        </mxCell>
        <mxCell id="OU1Akl8PPFRCoXZEZlV0-208" value="" style="image;html=1;image=img/lib/clip_art/computers/Server_Rack_128x128.png;shadow=0;strokeColor=#000000;fillColor=#FFFFFF;gradientColor=none;fontSize=18;fontColor=#F08705;fontStyle=0" vertex="1" parent="1">
          <mxGeometry x="334" y="375" width="80" height="80" as="geometry" />
        </mxCell>
        <mxCell id="OU1Akl8PPFRCoXZEZlV0-209" value="" style="image;html=1;image=img/lib/clip_art/computers/Server_Rack_128x128.png;shadow=0;strokeColor=#000000;fillColor=#FFFFFF;gradientColor=none;fontSize=18;fontColor=#F08705;fontStyle=0" vertex="1" parent="1">
          <mxGeometry x="424" y="375" width="80" height="80" as="geometry" />
        </mxCell>
        <mxCell id="OU1Akl8PPFRCoXZEZlV0-212" value="" style="image;html=1;image=img/lib/clip_art/computers/Server_Tower_128x128.png;shadow=0;strokeColor=#000000;fillColor=#FFFFFF;gradientColor=none;fontSize=18;fontColor=#F08705;fontStyle=0" vertex="1" parent="1">
          <mxGeometry x="840" y="321" width="80" height="80" as="geometry" />
        </mxCell>
        <mxCell id="OU1Akl8PPFRCoXZEZlV0-213" value="" style="image;html=1;image=img/lib/clip_art/computers/Server_Tower_128x128.png;shadow=0;strokeColor=#000000;fillColor=#FFFFFF;gradientColor=none;fontSize=18;fontColor=#F08705;fontStyle=0" vertex="1" parent="1">
          <mxGeometry x="942" y="321" width="80" height="80" as="geometry" />
        </mxCell>
        <mxCell id="OU1Akl8PPFRCoXZEZlV0-214" value="" style="image;html=1;image=img/lib/clip_art/computers/Server_Tower_128x128.png;shadow=0;strokeColor=#000000;fillColor=#FFFFFF;gradientColor=none;fontSize=18;fontColor=#F08705;fontStyle=0" vertex="1" parent="1">
          <mxGeometry x="1036" y="321" width="80" height="80" as="geometry" />
        </mxCell>
        <mxCell id="OU1Akl8PPFRCoXZEZlV0-215" value="" style="shape=image;html=1;verticalAlign=top;verticalLabelPosition=bottom;labelBackgroundColor=#ffffff;imageAspect=0;aspect=fixed;image=https://cdn4.iconfinder.com/data/icons/logos-and-brands/512/272_Raspberry_Pi_logo-128.png" vertex="1" parent="1">
          <mxGeometry x="842" y="412" width="78" height="78" as="geometry" />
        </mxCell>
        <mxCell id="OU1Akl8PPFRCoXZEZlV0-216" value="" style="shape=image;html=1;verticalAlign=top;verticalLabelPosition=bottom;labelBackgroundColor=#ffffff;imageAspect=0;aspect=fixed;image=https://cdn4.iconfinder.com/data/icons/logos-and-brands/512/272_Raspberry_Pi_logo-128.png" vertex="1" parent="1">
          <mxGeometry x="944" y="412" width="78" height="78" as="geometry" />
        </mxCell>
        <mxCell id="OU1Akl8PPFRCoXZEZlV0-217" value="" style="shape=image;html=1;verticalAlign=top;verticalLabelPosition=bottom;labelBackgroundColor=#ffffff;imageAspect=0;aspect=fixed;image=https://cdn4.iconfinder.com/data/icons/logos-and-brands/512/272_Raspberry_Pi_logo-128.png" vertex="1" parent="1">
          <mxGeometry x="1029" y="412" width="78" height="78" as="geometry" />
        </mxCell>
        <mxCell id="OU1Akl8PPFRCoXZEZlV0-218" value="" style="shape=image;html=1;verticalAlign=top;verticalLabelPosition=bottom;labelBackgroundColor=#ffffff;imageAspect=0;aspect=fixed;image=https://cdn4.iconfinder.com/data/icons/logos-and-brands/512/272_Raspberry_Pi_logo-128.png" vertex="1" parent="1">
          <mxGeometry x="842" y="499" width="78" height="78" as="geometry" />
        </mxCell>
      </root>
    </mxGraphModel>
  </diagram>
</mxfile>
